<svg xmlns="http://www.w3.org/2000/svg" width="1600" height="900" viewBox="0 0 1600 900" role="img" aria-labelledby="title desc">
<title id="title">Matrizes de confusao Local e Jev</title>
<desc id="desc">Matrizes de seis rotulos com ouro nas linhas e predicao nas colunas. Erros fora da diagonal sao destacados.</desc>
<rect width="1600" height="900" fill="#fbfaf5"/>
<rect x="72" y="60" width="16" height="98" rx="8" fill="#f5bd24"/>
<text x="116.0" y="100.0" text-anchor="start" font-family="Arial, sans-serif" font-size="20" font-weight="700" fill="#69745f">MAESTRO AGRICOLA - EXPERIMENTO JEV</text>
<text x="116.0" y="146.0" text-anchor="start" font-family="Arial, sans-serif" font-size="42" font-weight="700" fill="#24311d">Onde os classificadores erraram</text>
<text x="116.0" y="184.0" text-anchor="start" font-family="Arial, sans-serif" font-size="21" font-weight="400" fill="#69745f">Os erros importam mais que um unico numero de accuracy.</text>
<rect x="72" y="250" width="700" height="510" rx="20" fill="#ffffff" stroke="#d5d2c2"/>
<text x="106.0" y="304.0" text-anchor="start" font-family="Arial, sans-serif" font-size="30" font-weight="700" fill="#3d6e65">Local</text>
<text x="106.0" y="332.0" text-anchor="start" font-family="Arial, sans-serif" font-size="18" font-weight="400" fill="#69745f">linhas: ouro | colunas: predicao</text>
<text x="254.0" y="360.0" text-anchor="middle" font-family="Arial, sans-serif" font-size="15" font-weight="700" fill="#69745f">CAN</text>
<text x="206.0" y="409.0" text-anchor="end" font-family="Arial, sans-serif" font-size="15" font-weight="700" fill="#69745f">CANCEL</text>
<text x="318.0" y="360.0" text-anchor="middle" font-family="Arial, sans-serif" font-size="15" font-weight="700" fill="#69745f">CON</text>
<text x="206.0" y="473.0" text-anchor="end" font-family="Arial, sans-serif" font-size="15" font-weight="700" fill="#69745f">CONFIRM</text>
<text x="382.0" y="360.0" text-anchor="middle" font-family="Arial, sans-serif" font-size="15" font-weight="700" fill="#69745f">DOC</text>
<text x="206.0" y="537.0" text-anchor="end" font-family="Arial, sans-serif" font-size="15" font-weight="700" fill="#69745f">DOCK</text>
<text x="446.0" y="360.0" text-anchor="middle" font-family="Arial, sans-serif" font-size="15" font-weight="700" fill="#69745f">SPR</text>
<text x="206.0" y="601.0" text-anchor="end" font-family="Arial, sans-serif" font-size="15" font-weight="700" fill="#69745f">SPRAY</text>
<text x="510.0" y="360.0" text-anchor="middle" font-family="Arial, sans-serif" font-size="15" font-weight="700" fill="#69745f">UND</text>
<text x="206.0" y="665.0" text-anchor="end" font-family="Arial, sans-serif" font-size="15" font-weight="700" fill="#69745f">UNDOCK</text>
<text x="574.0" y="360.0" text-anchor="middle" font-family="Arial, sans-serif" font-size="15" font-weight="700" fill="#69745f">UNK</text>
<text x="206.0" y="729.0" text-anchor="end" font-family="Arial, sans-serif" font-size="15" font-weight="700" fill="#69745f">UNKNOWN</text>
<rect x="222" y="370" width="60" height="60" rx="7" fill="#b8d7c4" stroke="#d5d2c2"/>
<text x="252.0" y="409.0" text-anchor="middle" font-family="Arial, sans-serif" font-size="25" font-weight="700" fill="#24311d">7</text>
<rect x="286" y="370" width="60" height="60" rx="7" fill="#f5beb8" stroke="#d5d2c2"/>
<text x="316.0" y="409.0" text-anchor="middle" font-family="Arial, sans-serif" font-size="25" font-weight="700" fill="#24311d">1</text>
<rect x="350" y="370" width="60" height="60" rx="7" fill="#ffffff" stroke="#d5d2c2"/>
<text x="380.0" y="409.0" text-anchor="middle" font-family="Arial, sans-serif" font-size="25" font-weight="700" fill="#24311d">0</text>
<rect x="414" y="370" width="60" height="60" rx="7" fill="#ffffff" stroke="#d5d2c2"/>
<text x="444.0" y="409.0" text-anchor="middle" font-family="Arial, sans-serif" font-size="25" font-weight="700" fill="#24311d">0</text>
<rect x="478" y="370" width="60" height="60" rx="7" fill="#f7dfb0" stroke="#d5d2c2"/>
<text x="508.0" y="409.0" text-anchor="middle" font-family="Arial, sans-serif" font-size="25" font-weight="700" fill="#24311d">1</text>
<rect x="542" y="370" width="60" height="60" rx="7" fill="#f7dfb0" stroke="#d5d2c2"/>
<text x="572.0" y="409.0" text-anchor="middle" font-family="Arial, sans-serif" font-size="25" font-weight="700" fill="#24311d">1</text>
<rect x="222" y="434" width="60" height="60" rx="7" fill="#ffffff" stroke="#d5d2c2"/>
<text x="252.0" y="473.0" text-anchor="middle" font-family="Arial, sans-serif" font-size="25" font-weight="700" fill="#24311d">0</text>
<rect x="286" y="434" width="60" height="60" rx="7" fill="#b8d7c4" stroke="#d5d2c2"/>
<text x="316.0" y="473.0" text-anchor="middle" font-family="Arial, sans-serif" font-size="25" font-weight="700" fill="#24311d">8</text>
<rect x="350" y="434" width="60" height="60" rx="7" fill="#f7dfb0" stroke="#d5d2c2"/>
<text x="380.0" y="473.0" text-anchor="middle" font-family="Arial, sans-serif" font-size="25" font-weight="700" fill="#24311d">1</text>
<rect x="414" y="434" width="60" height="60" rx="7" fill="#ffffff" stroke="#d5d2c2"/>
<text x="444.0" y="473.0" text-anchor="middle" font-family="Arial, sans-serif" font-size="25" font-weight="700" fill="#24311d">0</text>
<rect x="478" y="434" width="60" height="60" rx="7" fill="#ffffff" stroke="#d5d2c2"/>
<text x="508.0" y="473.0" text-anchor="middle" font-family="Arial, sans-serif" font-size="25" font-weight="700" fill="#24311d">0</text>
<rect x="542" y="434" width="60" height="60" rx="7" fill="#f7dfb0" stroke="#d5d2c2"/>
<text x="572.0" y="473.0" text-anchor="middle" font-family="Arial, sans-serif" font-size="25" font-weight="700" fill="#24311d">1</text>
<rect x="222" y="498" width="60" height="60" rx="7" fill="#ffffff" stroke="#d5d2c2"/>
<text x="252.0" y="537.0" text-anchor="middle" font-family="Arial, sans-serif" font-size="25" font-weight="700" fill="#24311d">0</text>
<rect x="286" y="498" width="60" height="60" rx="7" fill="#f7dfb0" stroke="#d5d2c2"/>
<text x="316.0" y="537.0" text-anchor="middle" font-family="Arial, sans-serif" font-size="25" font-weight="700" fill="#24311d">1</text>
<rect x="350" y="498" width="60" height="60" rx="7" fill="#b8d7c4" stroke="#d5d2c2"/>
<text x="380.0" y="537.0" text-anchor="middle" font-family="Arial, sans-serif" font-size="25" font-weight="700" fill="#24311d">7</text>
<rect x="414" y="498" width="60" height="60" rx="7" fill="#ffffff" stroke="#d5d2c2"/>
<text x="444.0" y="537.0" text-anchor="middle" font-family="Arial, sans-serif" font-size="25" font-weight="700" fill="#24311d">0</text>
<rect x="478" y="498" width="60" height="60" rx="7" fill="#f7dfb0" stroke="#d5d2c2"/>
<text x="508.0" y="537.0" text-anchor="middle" font-family="Arial, sans-serif" font-size="25" font-weight="700" fill="#24311d">1</text>
<rect x="542" y="498" width="60" height="60" rx="7" fill="#f7dfb0" stroke="#d5d2c2"/>
<text x="572.0" y="537.0" text-anchor="middle" font-family="Arial, sans-serif" font-size="25" font-weight="700" fill="#24311d">1</text>
<rect x="222" y="562" width="60" height="60" rx="7" fill="#ffffff" stroke="#d5d2c2"/>
<text x="252.0" y="601.0" text-anchor="middle" font-family="Arial, sans-serif" font-size="25" font-weight="700" fill="#24311d">0</text>
<rect x="286" y="562" width="60" height="60" rx="7" fill="#ffffff" stroke="#d5d2c2"/>
<text x="316.0" y="601.0" text-anchor="middle" font-family="Arial, sans-serif" font-size="25" font-weight="700" fill="#24311d">0</text>
<rect x="350" y="562" width="60" height="60" rx="7" fill="#ffffff" stroke="#d5d2c2"/>
<text x="380.0" y="601.0" text-anchor="middle" font-family="Arial, sans-serif" font-size="25" font-weight="700" fill="#24311d">0</text>
<rect x="414" y="562" width="60" height="60" rx="7" fill="#b8d7c4" stroke="#d5d2c2"/>
<text x="444.0" y="601.0" text-anchor="middle" font-family="Arial, sans-serif" font-size="25" font-weight="700" fill="#24311d">9</text>
<rect x="478" y="562" width="60" height="60" rx="7" fill="#ffffff" stroke="#d5d2c2"/>
<text x="508.0" y="601.0" text-anchor="middle" font-family="Arial, sans-serif" font-size="25" font-weight="700" fill="#24311d">0</text>
<rect x="542" y="562" width="60" height="60" rx="7" fill="#f7dfb0" stroke="#d5d2c2"/>
<text x="572.0" y="601.0" text-anchor="middle" font-family="Arial, sans-serif" font-size="25" font-weight="700" fill="#24311d">1</text>
<rect x="222" y="626" width="60" height="60" rx="7" fill="#ffffff" stroke="#d5d2c2"/>
<text x="252.0" y="665.0" text-anchor="middle" font-family="Arial, sans-serif" font-size="25" font-weight="700" fill="#24311d">0</text>
<rect x="286" y="626" width="60" height="60" rx="7" fill="#ffffff" stroke="#d5d2c2"/>
<text x="316.0" y="665.0" text-anchor="middle" font-family="Arial, sans-serif" font-size="25" font-weight="700" fill="#24311d">0</text>
<rect x="350" y="626" width="60" height="60" rx="7" fill="#f7dfb0" stroke="#d5d2c2"/>
<text x="380.0" y="665.0" text-anchor="middle" font-family="Arial, sans-serif" font-size="25" font-weight="700" fill="#24311d">2</text>
<rect x="414" y="626" width="60" height="60" rx="7" fill="#ffffff" stroke="#d5d2c2"/>
<text x="444.0" y="665.0" text-anchor="middle" font-family="Arial, sans-serif" font-size="25" font-weight="700" fill="#24311d">0</text>
<rect x="478" y="626" width="60" height="60" rx="7" fill="#b8d7c4" stroke="#d5d2c2"/>
<text x="508.0" y="665.0" text-anchor="middle" font-family="Arial, sans-serif" font-size="25" font-weight="700" fill="#24311d">8</text>
<rect x="542" y="626" width="60" height="60" rx="7" fill="#ffffff" stroke="#d5d2c2"/>
<text x="572.0" y="665.0" text-anchor="middle" font-family="Arial, sans-serif" font-size="25" font-weight="700" fill="#24311d">0</text>
<rect x="222" y="690" width="60" height="60" rx="7" fill="#ffffff" stroke="#d5d2c2"/>
<text x="252.0" y="729.0" text-anchor="middle" font-family="Arial, sans-serif" font-size="25" font-weight="700" fill="#24311d">0</text>
<rect x="286" y="690" width="60" height="60" rx="7" fill="#f7dfb0" stroke="#d5d2c2"/>
<text x="316.0" y="729.0" text-anchor="middle" font-family="Arial, sans-serif" font-size="25" font-weight="700" fill="#24311d">1</text>
<rect x="350" y="690" width="60" height="60" rx="7" fill="#ffffff" stroke="#d5d2c2"/>
<text x="380.0" y="729.0" text-anchor="middle" font-family="Arial, sans-serif" font-size="25" font-weight="700" fill="#24311d">0</text>
<rect x="414" y="690" width="60" height="60" rx="7" fill="#ffffff" stroke="#d5d2c2"/>
<text x="444.0" y="729.0" text-anchor="middle" font-family="Arial, sans-serif" font-size="25" font-weight="700" fill="#24311d">0</text>
<rect x="478" y="690" width="60" height="60" rx="7" fill="#ffffff" stroke="#d5d2c2"/>
<text x="508.0" y="729.0" text-anchor="middle" font-family="Arial, sans-serif" font-size="25" font-weight="700" fill="#24311d">0</text>
<rect x="542" y="690" width="60" height="60" rx="7" fill="#b8d7c4" stroke="#d5d2c2"/>
<text x="572.0" y="729.0" text-anchor="middle" font-family="Arial, sans-serif" font-size="25" font-weight="700" fill="#24311d">9</text>
<rect x="828" y="250" width="700" height="510" rx="20" fill="#ffffff" stroke="#d5d2c2"/>
<text x="862.0" y="304.0" text-anchor="start" font-family="Arial, sans-serif" font-size="30" font-weight="700" fill="#bb5a24">Jev remoto</text>
<text x="862.0" y="332.0" text-anchor="start" font-family="Arial, sans-serif" font-size="18" font-weight="400" fill="#69745f">linhas: ouro | colunas: predicao</text>
<text x="1010.0" y="360.0" text-anchor="middle" font-family="Arial, sans-serif" font-size="15" font-weight="700" fill="#69745f">CAN</text>
<text x="962.0" y="409.0" text-anchor="end" font-family="Arial, sans-serif" font-size="15" font-weight="700" fill="#69745f">CANCEL</text>
<text x="1074.0" y="360.0" text-anchor="middle" font-family="Arial, sans-serif" font-size="15" font-weight="700" fill="#69745f">CON</text>
<text x="962.0" y="473.0" text-anchor="end" font-family="Arial, sans-serif" font-size="15" font-weight="700" fill="#69745f">CONFIRM</text>
<text x="1138.0" y="360.0" text-anchor="middle" font-family="Arial, sans-serif" font-size="15" font-weight="700" fill="#69745f">DOC</text>
<text x="962.0" y="537.0" text-anchor="end" font-family="Arial, sans-serif" font-size="15" font-weight="700" fill="#69745f">DOCK</text>
<text x="1202.0" y="360.0" text-anchor="middle" font-family="Arial, sans-serif" font-size="15" font-weight="700" fill="#69745f">SPR</text>
<text x="962.0" y="601.0" text-anchor="end" font-family="Arial, sans-serif" font-size="15" font-weight="700" fill="#69745f">SPRAY</text>
<text x="1266.0" y="360.0" text-anchor="middle" font-family="Arial, sans-serif" font-size="15" font-weight="700" fill="#69745f">UND</text>
<text x="962.0" y="665.0" text-anchor="end" font-family="Arial, sans-serif" font-size="15" font-weight="700" fill="#69745f">UNDOCK</text>
<text x="1330.0" y="360.0" text-anchor="middle" font-family="Arial, sans-serif" font-size="15" font-weight="700" fill="#69745f">UNK</text>
<text x="962.0" y="729.0" text-anchor="end" font-family="Arial, sans-serif" font-size="15" font-weight="700" fill="#69745f">UNKNOWN</text>
<rect x="978" y="370" width="60" height="60" rx="7" fill="#b8d7c4" stroke="#d5d2c2"/>
<text x="1008.0" y="409.0" text-anchor="middle" font-family="Arial, sans-serif" font-size="25" font-weight="700" fill="#24311d">7</text>
<rect x="1042" y="370" width="60" height="60" rx="7" fill="#f5beb8" stroke="#d5d2c2"/>
<text x="1072.0" y="409.0" text-anchor="middle" font-family="Arial, sans-serif" font-size="25" font-weight="700" fill="#24311d">1</text>
<rect x="1106" y="370" width="60" height="60" rx="7" fill="#ffffff" stroke="#d5d2c2"/>
<text x="1136.0" y="409.0" text-anchor="middle" font-family="Arial, sans-serif" font-size="25" font-weight="700" fill="#24311d">0</text>
<rect x="1170" y="370" width="60" height="60" rx="7" fill="#ffffff" stroke="#d5d2c2"/>
<text x="1200.0" y="409.0" text-anchor="middle" font-family="Arial, sans-serif" font-size="25" font-weight="700" fill="#24311d">0</text>
<rect x="1234" y="370" width="60" height="60" rx="7" fill="#ffffff" stroke="#d5d2c2"/>
<text x="1264.0" y="409.0" text-anchor="middle" font-family="Arial, sans-serif" font-size="25" font-weight="700" fill="#24311d">0</text>
<rect x="1298" y="370" width="60" height="60" rx="7" fill="#f7dfb0" stroke="#d5d2c2"/>
<text x="1328.0" y="409.0" text-anchor="middle" font-family="Arial, sans-serif" font-size="25" font-weight="700" fill="#24311d">2</text>
<rect x="978" y="434" width="60" height="60" rx="7" fill="#ffffff" stroke="#d5d2c2"/>
<text x="1008.0" y="473.0" text-anchor="middle" font-family="Arial, sans-serif" font-size="25" font-weight="700" fill="#24311d">0</text>
<rect x="1042" y="434" width="60" height="60" rx="7" fill="#b8d7c4" stroke="#d5d2c2"/>
<text x="1072.0" y="473.0" text-anchor="middle" font-family="Arial, sans-serif" font-size="25" font-weight="700" fill="#24311d">9</text>
<rect x="1106" y="434" width="60" height="60" rx="7" fill="#ffffff" stroke="#d5d2c2"/>
<text x="1136.0" y="473.0" text-anchor="middle" font-family="Arial, sans-serif" font-size="25" font-weight="700" fill="#24311d">0</text>
<rect x="1170" y="434" width="60" height="60" rx="7" fill="#ffffff" stroke="#d5d2c2"/>
<text x="1200.0" y="473.0" text-anchor="middle" font-family="Arial, sans-serif" font-size="25" font-weight="700" fill="#24311d">0</text>
<rect x="1234" y="434" width="60" height="60" rx="7" fill="#ffffff" stroke="#d5d2c2"/>
<text x="1264.0" y="473.0" text-anchor="middle" font-family="Arial, sans-serif" font-size="25" font-weight="700" fill="#24311d">0</text>
<rect x="1298" y="434" width="60" height="60" rx="7" fill="#f7dfb0" stroke="#d5d2c2"/>
<text x="1328.0" y="473.0" text-anchor="middle" font-family="Arial, sans-serif" font-size="25" font-weight="700" fill="#24311d">1</text>
<rect x="978" y="498" width="60" height="60" rx="7" fill="#ffffff" stroke="#d5d2c2"/>
<text x="1008.0" y="537.0" text-anchor="middle" font-family="Arial, sans-serif" font-size="25" font-weight="700" fill="#24311d">0</text>
<rect x="1042" y="498" width="60" height="60" rx="7" fill="#f7dfb0" stroke="#d5d2c2"/>
<text x="1072.0" y="537.0" text-anchor="middle" font-family="Arial, sans-serif" font-size="25" font-weight="700" fill="#24311d">1</text>
<rect x="1106" y="498" width="60" height="60" rx="7" fill="#b8d7c4" stroke="#d5d2c2"/>
<text x="1136.0" y="537.0" text-anchor="middle" font-family="Arial, sans-serif" font-size="25" font-weight="700" fill="#24311d">9</text>
<rect x="1170" y="498" width="60" height="60" rx="7" fill="#ffffff" stroke="#d5d2c2"/>
<text x="1200.0" y="537.0" text-anchor="middle" font-family="Arial, sans-serif" font-size="25" font-weight="700" fill="#24311d">0</text>
<rect x="1234" y="498" width="60" height="60" rx="7" fill="#ffffff" stroke="#d5d2c2"/>
<text x="1264.0" y="537.0" text-anchor="middle" font-family="Arial, sans-serif" font-size="25" font-weight="700" fill="#24311d">0</text>
<rect x="1298" y="498" width="60" height="60" rx="7" fill="#ffffff" stroke="#d5d2c2"/>
<text x="1328.0" y="537.0" text-anchor="middle" font-family="Arial, sans-serif" font-size="25" font-weight="700" fill="#24311d">0</text>
<rect x="978" y="562" width="60" height="60" rx="7" fill="#ffffff" stroke="#d5d2c2"/>
<text x="1008.0" y="601.0" text-anchor="middle" font-family="Arial, sans-serif" font-size="25" font-weight="700" fill="#24311d">0</text>
<rect x="1042" y="562" width="60" height="60" rx="7" fill="#f7dfb0" stroke="#d5d2c2"/>
<text x="1072.0" y="601.0" text-anchor="middle" font-family="Arial, sans-serif" font-size="25" font-weight="700" fill="#24311d">1</text>
<rect x="1106" y="562" width="60" height="60" rx="7" fill="#ffffff" stroke="#d5d2c2"/>
<text x="1136.0" y="601.0" text-anchor="middle" font-family="Arial, sans-serif" font-size="25" font-weight="700" fill="#24311d">0</text>
<rect x="1170" y="562" width="60" height="60" rx="7" fill="#b8d7c4" stroke="#d5d2c2"/>
<text x="1200.0" y="601.0" text-anchor="middle" font-family="Arial, sans-serif" font-size="25" font-weight="700" fill="#24311d">9</text>
<rect x="1234" y="562" width="60" height="60" rx="7" fill="#ffffff" stroke="#d5d2c2"/>
<text x="1264.0" y="601.0" text-anchor="middle" font-family="Arial, sans-serif" font-size="25" font-weight="700" fill="#24311d">0</text>
<rect x="1298" y="562" width="60" height="60" rx="7" fill="#ffffff" stroke="#d5d2c2"/>
<text x="1328.0" y="601.0" text-anchor="middle" font-family="Arial, sans-serif" font-size="25" font-weight="700" fill="#24311d">0</text>
<rect x="978" y="626" width="60" height="60" rx="7" fill="#ffffff" stroke="#d5d2c2"/>
<text x="1008.0" y="665.0" text-anchor="middle" font-family="Arial, sans-serif" font-size="25" font-weight="700" fill="#24311d">0</text>
<rect x="1042" y="626" width="60" height="60" rx="7" fill="#ffffff" stroke="#d5d2c2"/>
<text x="1072.0" y="665.0" text-anchor="middle" font-family="Arial, sans-serif" font-size="25" font-weight="700" fill="#24311d">0</text>
<rect x="1106" y="626" width="60" height="60" rx="7" fill="#ffffff" stroke="#d5d2c2"/>
<text x="1136.0" y="665.0" text-anchor="middle" font-family="Arial, sans-serif" font-size="25" font-weight="700" fill="#24311d">0</text>
<rect x="1170" y="626" width="60" height="60" rx="7" fill="#ffffff" stroke="#d5d2c2"/>
<text x="1200.0" y="665.0" text-anchor="middle" font-family="Arial, sans-serif" font-size="25" font-weight="700" fill="#24311d">0</text>
<rect x="1234" y="626" width="60" height="60" rx="7" fill="#b8d7c4" stroke="#d5d2c2"/>
<text x="1264.0" y="665.0" text-anchor="middle" font-family="Arial, sans-serif" font-size="25" font-weight="700" fill="#24311d">10</text>
<rect x="1298" y="626" width="60" height="60" rx="7" fill="#ffffff" stroke="#d5d2c2"/>
<text x="1328.0" y="665.0" text-anchor="middle" font-family="Arial, sans-serif" font-size="25" font-weight="700" fill="#24311d">0</text>
<rect x="978" y="690" width="60" height="60" rx="7" fill="#ffffff" stroke="#d5d2c2"/>
<text x="1008.0" y="729.0" text-anchor="middle" font-family="Arial, sans-serif" font-size="25" font-weight="700" fill="#24311d">0</text>
<rect x="1042" y="690" width="60" height="60" rx="7" fill="#ffffff" stroke="#d5d2c2"/>
<text x="1072.0" y="729.0" text-anchor="middle" font-family="Arial, sans-serif" font-size="25" font-weight="700" fill="#24311d">0</text>
<rect x="1106" y="690" width="60" height="60" rx="7" fill="#ffffff" stroke="#d5d2c2"/>
<text x="1136.0" y="729.0" text-anchor="middle" font-family="Arial, sans-serif" font-size="25" font-weight="700" fill="#24311d">0</text>
<rect x="1170" y="690" width="60" height="60" rx="7" fill="#ffffff" stroke="#d5d2c2"/>
<text x="1200.0" y="729.0" text-anchor="middle" font-family="Arial, sans-serif" font-size="25" font-weight="700" fill="#24311d">0</text>
<rect x="1234" y="690" width="60" height="60" rx="7" fill="#ffffff" stroke="#d5d2c2"/>
<text x="1264.0" y="729.0" text-anchor="middle" font-family="Arial, sans-serif" font-size="25" font-weight="700" fill="#24311d">0</text>
<rect x="1298" y="690" width="60" height="60" rx="7" fill="#b8d7c4" stroke="#d5d2c2"/>
<text x="1328.0" y="729.0" text-anchor="middle" font-family="Arial, sans-serif" font-size="25" font-weight="700" fill="#24311d">10</text>
<rect x="72" y="776" width="1456" height="38" rx="10" fill="#fce6df"/>
<text x="96.0" y="802.0" text-anchor="start" font-family="Arial, sans-serif" font-size="19" font-weight="700" fill="#a43d32">Aviso de seguranca: Jev teve CANCEL -&gt; CONFIRM (0,75). Local teve 3 aceitacoes inseguras. Nenhuma matriz autoriza movimento.</text>
<line x1="72" y1="820" x2="1528" y2="820" stroke="#d5d2c2"/>
<text x="72.0" y="852.0" text-anchor="start" font-family="Arial, sans-serif" font-size="20" font-weight="400" fill="#69745f">n=60, corpus sintetico pareado, uma rodada remota</text>
<text x="1528.0" y="852.0" text-anchor="end" font-family="Arial, sans-serif" font-size="20" font-weight="700" fill="#a43d32">Decisao: HOLD - sem adocao operacional</text>
<text x="72.0" y="878.0" text-anchor="start" font-family="Arial, sans-serif" font-size="16" font-weight="400" fill="#69745f">Fonte: JEV-42, SHA-256 e7984bbc1eb7...</text>
</svg>
