<svg xmlns="http://www.w3.org/2000/svg" width="1000" height="560" viewBox="0 0 1000 560" role="img" aria-labelledby="title desc">
<title id="title">Reliability diagram Local e Jev</title>
<desc id="desc">Confianca media do top-label no eixo horizontal e accuracy observada no eixo vertical. Cada ponto e um bin ocupado.</desc>
<rect width="100%" height="100%" fill="#ffffff"/>
<text x="50" y="36" font-family="sans-serif" font-size="22" font-weight="700" fill="#1f2937">Reliability diagram: Local e Jev remoto</text>
<text x="50" y="62" font-family="sans-serif" font-size="14" fill="#374151">n=60, corpus sintetico pareado, uma rodada remota. Descritivo; nao prova calibracao generalizavel.</text>
<text x="78" y="118" font-family="sans-serif" font-size="18" font-weight="700" fill="#1f2937">Local</text>
<rect x="78" y="150" width="400" height="320" fill="#ffffff" stroke="#4b5563"/>
<line x1="78" y1="470" x2="478" y2="150" stroke="#6b7280" stroke-dasharray="6 5"/>
<line x1="78.0" y1="470" x2="78.0" y2="475" stroke="#4b5563"/>
<text x="78.0" y="493" text-anchor="middle" font-family="sans-serif" font-size="12" fill="#1f2937">0.0</text>
<line x1="73" y1="470.0" x2="78" y2="470.0" stroke="#4b5563"/>
<text x="68" y="474.0" text-anchor="end" font-family="sans-serif" font-size="12" fill="#1f2937">0.0</text>
<line x1="278.0" y1="470" x2="278.0" y2="475" stroke="#4b5563"/>
<text x="278.0" y="493" text-anchor="middle" font-family="sans-serif" font-size="12" fill="#1f2937">0.5</text>
<line x1="73" y1="310.0" x2="78" y2="310.0" stroke="#4b5563"/>
<text x="68" y="314.0" text-anchor="end" font-family="sans-serif" font-size="12" fill="#1f2937">0.5</text>
<line x1="478.0" y1="470" x2="478.0" y2="475" stroke="#4b5563"/>
<text x="478.0" y="493" text-anchor="middle" font-family="sans-serif" font-size="12" fill="#1f2937">1.0</text>
<line x1="73" y1="150.0" x2="78" y2="150.0" stroke="#4b5563"/>
<text x="68" y="154.0" text-anchor="end" font-family="sans-serif" font-size="12" fill="#1f2937">1.0</text>
<circle cx="229.63" cy="470.00" r="9" fill="#0f766e" fill-opacity="0.82" stroke="#1f2937" stroke-width="1.2"/>
<text x="229.63" y="453.00" text-anchor="middle" font-family="sans-serif" font-size="12" fill="#1f2937">n=3</text>
<circle cx="263.87" cy="310.00" r="10" fill="#0f766e" fill-opacity="0.82" stroke="#1f2937" stroke-width="1.2"/>
<text x="263.87" y="280.00" text-anchor="middle" font-family="sans-serif" font-size="12" fill="#1f2937">n=4</text>
<circle cx="299.72" cy="390.00" r="10" fill="#0f766e" fill-opacity="0.82" stroke="#1f2937" stroke-width="1.2"/>
<text x="299.72" y="372.00" text-anchor="middle" font-family="sans-serif" font-size="12" fill="#1f2937">n=4</text>
<circle cx="337.24" cy="270.00" r="12" fill="#0f766e" fill-opacity="0.82" stroke="#1f2937" stroke-width="1.2"/>
<text x="337.24" y="238.00" text-anchor="middle" font-family="sans-serif" font-size="12" fill="#1f2937">n=8</text>
<circle cx="368.06" cy="256.67" r="9" fill="#0f766e" fill-opacity="0.82" stroke="#1f2937" stroke-width="1.2"/>
<text x="368.06" y="239.67" text-anchor="middle" font-family="sans-serif" font-size="12" fill="#1f2937">n=3</text>
<circle cx="424.30" cy="150.00" r="10" fill="#0f766e" fill-opacity="0.82" stroke="#1f2937" stroke-width="1.2"/>
<text x="424.30" y="120.00" text-anchor="middle" font-family="sans-serif" font-size="12" fill="#1f2937">n=4</text>
<circle cx="471.73" cy="168.82" r="18" fill="#0f766e" fill-opacity="0.82" stroke="#1f2937" stroke-width="1.2"/>
<text x="471.73" y="142.82" text-anchor="middle" font-family="sans-serif" font-size="12" fill="#1f2937">n=34</text>
<text x="278.0" y="526" text-anchor="middle" font-family="sans-serif" font-size="13" fill="#1f2937">Confianca media</text>
<text x="22" y="310.0" text-anchor="middle" font-family="sans-serif" font-size="13" fill="#1f2937" transform="rotate(-90 22 310.0)">Accuracy observada</text>
<text x="530" y="118" font-family="sans-serif" font-size="18" font-weight="700" fill="#1f2937">Jev remoto</text>
<rect x="530" y="150" width="400" height="320" fill="#ffffff" stroke="#4b5563"/>
<line x1="530" y1="470" x2="930" y2="150" stroke="#6b7280" stroke-dasharray="6 5"/>
<line x1="530.0" y1="470" x2="530.0" y2="475" stroke="#4b5563"/>
<text x="530.0" y="493" text-anchor="middle" font-family="sans-serif" font-size="12" fill="#1f2937">0.0</text>
<line x1="525" y1="470.0" x2="530" y2="470.0" stroke="#4b5563"/>
<text x="520" y="474.0" text-anchor="end" font-family="sans-serif" font-size="12" fill="#1f2937">0.0</text>
<line x1="730.0" y1="470" x2="730.0" y2="475" stroke="#4b5563"/>
<text x="730.0" y="493" text-anchor="middle" font-family="sans-serif" font-size="12" fill="#1f2937">0.5</text>
<line x1="525" y1="310.0" x2="530" y2="310.0" stroke="#4b5563"/>
<text x="520" y="314.0" text-anchor="end" font-family="sans-serif" font-size="12" fill="#1f2937">0.5</text>
<line x1="930.0" y1="470" x2="930.0" y2="475" stroke="#4b5563"/>
<text x="930.0" y="493" text-anchor="middle" font-family="sans-serif" font-size="12" fill="#1f2937">1.0</text>
<line x1="525" y1="150.0" x2="530" y2="150.0" stroke="#4b5563"/>
<text x="520" y="154.0" text-anchor="end" font-family="sans-serif" font-size="12" fill="#1f2937">1.0</text>
<circle cx="702.00" cy="470.00" r="8" fill="#b45309" fill-opacity="0.82" stroke="#1f2937" stroke-width="1.2"/>
<text x="702.00" y="454.00" text-anchor="middle" font-family="sans-serif" font-size="12" fill="#1f2937">n=1</text>
<circle cx="758.00" cy="470.00" r="8" fill="#b45309" fill-opacity="0.82" stroke="#1f2937" stroke-width="1.2"/>
<text x="758.00" y="442.00" text-anchor="middle" font-family="sans-serif" font-size="12" fill="#1f2937">n=1</text>
<circle cx="776.00" cy="390.00" r="10" fill="#b45309" fill-opacity="0.82" stroke="#1f2937" stroke-width="1.2"/>
<text x="776.00" y="372.00" text-anchor="middle" font-family="sans-serif" font-size="12" fill="#1f2937">n=4</text>
<circle cx="821.20" cy="214.00" r="10" fill="#b45309" fill-opacity="0.82" stroke="#1f2937" stroke-width="1.2"/>
<text x="821.20" y="184.00" text-anchor="middle" font-family="sans-serif" font-size="12" fill="#1f2937">n=5</text>
<circle cx="866.67" cy="150.00" r="11" fill="#b45309" fill-opacity="0.82" stroke="#1f2937" stroke-width="1.2"/>
<text x="866.67" y="131.00" text-anchor="middle" font-family="sans-serif" font-size="12" fill="#1f2937">n=6</text>
<circle cx="921.16" cy="150.00" r="18" fill="#b45309" fill-opacity="0.82" stroke="#1f2937" stroke-width="1.2"/>
<text x="921.16" y="112.00" text-anchor="middle" font-family="sans-serif" font-size="12" fill="#1f2937">n=43</text>
<text x="730.0" y="526" text-anchor="middle" font-family="sans-serif" font-size="13" fill="#1f2937">Confianca media</text>
<text x="474" y="310.0" text-anchor="middle" font-family="sans-serif" font-size="13" fill="#1f2937" transform="rotate(-90 474 310.0)">Accuracy observada</text>
<text x="50" y="520" font-family="sans-serif" font-size="13" fill="#374151">Eixo x: confianca media do top-label. Eixo y: accuracy observada. Diagonal: calibracao ideal.</text>
<text x="50" y="542" font-family="sans-serif" font-size="13" fill="#991b1b">Leitura obrigatoria: ha um aceite inseguro Jev CANCEL -> CONFIRM; nao usar este grafico como prova de seguranca.</text>
</svg>
